name D:\school\WTK\thesis\model\3dpredictsim\Results\test_WL_v2\Fal_s1_bCst_PF_Natali2010_ls135_k_nonl150_kmtp_ig23.mot
datacolumns 128
datarows 4
range 0.00000000 0.03499758
endheader
time	pelvis_tilt	pelvis_list	pelvis_rotation	pelvis_tx	pelvis_ty	pelvis_tz	hip_flexion_l	hip_adduction_l	hip_rotation_l	hip_flexion_r	hip_adduction_r	hip_rotation_r	knee_angle_l	knee_angle_r	ankle_angle_l	ankle_angle_r	subtalar_angle_l	subtalar_angle_r	tmt_angle_l	tmt_angle_r	mtp_angle_l	mtp_angle_r	lumbar_extension	lumbar_bending	lumbar_rotation	arm_flex_l	arm_add_l	arm_rot_l	arm_flex_r	arm_add_r	arm_rot_r	elbow_flex_l	elbow_flex_r	pro_sup_l	pro_sup_r	glut_med1_l/activation	glut_med2_l/activation	glut_med3_l/activation	glut_min1_l/activation	glut_min2_l/activation	glut_min3_l/activation	semimem_l/activation	semiten_l/activation	bifemlh_l/activation	bifemsh_l/activation	sar_l/activation	add_long_l/activation	add_brev_l/activation	add_mag1_l/activation	add_mag2_l/activation	add_mag3_l/activation	tfl_l/activation	pect_l/activation	grac_l/activation	glut_max1_l/activation	glut_max2_l/activation	glut_max3_l/activation	iliacus_l/activation	psoas_l/activation	quad_fem_l/activation	gem_l/activation	peri_l/activation	rect_fem_l/activation	vas_med_l/activation	vas_int_l/activation	vas_lat_l/activation	med_gas_l/activation	lat_gas_l/activation	soleus_l/activation	tib_post_l/activation	flex_dig_l/activation	flex_hal_l/activation	tib_ant_l/activation	per_brev_l/activation	per_long_l/activation	per_tert_l/activation	ext_dig_l/activation	ext_hal_l/activation	ercspn_l/activation	intobl_l/activation	extobl_l/activation	glut_med1_r/activation	glut_med2_r/activation	glut_med3_r/activation	glut_min1_r/activation	glut_min2_r/activation	glut_min3_r/activation	semimem_r/activation	semiten_r/activation	bifemlh_r/activation	bifemsh_r/activation	sar_r/activation	add_long_r/activation	add_brev_r/activation	add_mag1_r/activation	add_mag2_r/activation	add_mag3_r/activation	tfl_r/activation	pect_r/activation	grac_r/activation	glut_max1_r/activation	glut_max2_r/activation	glut_max3_r/activation	iliacus_r/activation	psoas_r/activation	quad_fem_r/activation	gem_r/activation	peri_r/activation	rect_fem_r/activation	vas_med_r/activation	vas_int_r/activation	vas_lat_r/activation	med_gas_r/activation	lat_gas_r/activation	soleus_r/activation	tib_post_r/activation	flex_dig_r/activation	flex_hal_r/activation	tib_ant_r/activation	per_brev_r/activation	per_long_r/activation	per_tert_r/activation	ext_dig_r/activation	ext_hal_r/activation	ercspn_r/activation	intobl_r/activation	extobl_r/activation	
          0.00000000	         -2.92929332	         -2.18128326	          6.22635961	          0.00000000	          0.91949027	         -0.00279589	        -16.81228092	         -1.27245648	          6.23006440	         27.95089652	          3.50200474	         -2.38981649	        -10.05754900	         -8.91639334	         -1.01749643	          7.93695337	          8.71560308	         -4.90372845	         -2.19320609	         -3.83571063	         25.44683994	         -0.07855214	         -1.58310092	          0.30375646	         -2.31022030	          4.59757942	        -13.47056724	         17.02920619	         -6.89452075	        -13.45016038	          6.73089318	         37.27679781	         16.42821759	         86.51662706	         86.51662706	          0.22488257	          0.07321747	          0.05615549	          0.23337114	          0.14522246	          0.08520011	          0.05000192	          0.05000068	          0.05000088	          0.05000016	          0.08520474	          0.19936140	          0.05000251	          0.05972460	          0.05972095	          0.05972181	          0.24224419	          0.07611145	          0.05000436	          0.05000516	          0.05000417	          0.05001563	          0.35331142	          0.57693199	          0.05333484	          0.05002317	          0.05000028	          0.24472114	          0.14234126	          0.15234624	          0.15006236	          0.20589985	          0.28247842	          0.24401934	          0.21974502	          0.19425556	          0.25874927	          0.05000002	          0.05000016	          0.13078617	          0.05000006	          0.05000003	          0.05000009	          0.06335367	          0.07133324	          0.07121539	          0.05000000	          0.05000002	          0.09954573	          0.05000003	          0.05000003	          0.05000004	          0.17270942	          0.08226318	          0.11916576	          0.08003761	          0.05972264	          0.12155759	          0.32206296	          0.32795544	          0.22645664	          0.12478089	          0.05000022	          0.07163772	          0.15002750	          0.05000049	          0.10871209	          0.15373775	          0.05000014	          0.05797646	          0.51693834	          0.24790877	          0.11593508	          0.05972166	          0.08619968	          0.09051265	          0.07211841	          0.06795369	          0.07133311	          0.06322480	          0.05972158	          0.05082245	          0.05972165	          0.50385020	          0.28961219	          0.21589870	          0.10530927	          0.44005191	          0.22419628	          0.05000000	          0.10231969	          0.08520267	
          0.01166586	         -2.92338462	         -2.24542655	          6.47370052	          0.01821667	          0.91868975	         -0.00263136	        -16.69389460	         -1.57066136	          5.97505884	         27.18107443	          3.75008333	         -2.10575239	        -11.94625770	         -9.53177584	         -1.81044543	          7.38741089	          9.62012845	         -5.21584084	         -3.21219439	         -3.96061479	         26.62459777	         -0.14333235	         -1.33847089	          0.49221917	         -2.36946695	          4.17910766	        -13.48389471	         17.28604237	         -7.94408642	        -13.45097253	          6.57507202	         38.51279440	         16.18635990	         86.51662706	         86.51662706	          0.33292821	          0.06129906	          0.05000004	          0.29166819	          0.12158303	          0.07133118	          0.05000096	          0.05000012	          0.05000008	          0.05000027	          0.07133524	          0.16690922	          0.05760085	          0.05000274	          0.05000069	          0.05000046	          0.20281209	          0.07898232	          0.05000074	          0.05000083	          0.05000047	          0.05000029	          0.29579902	          0.54847942	          0.05000007	          0.05000028	          0.05000014	          0.20488515	          0.11917092	          0.12754728	          0.12563516	          0.17238321	          0.23649623	          0.20429756	          0.18397467	          0.16263446	          0.21662979	          0.06248333	          0.12111628	          0.14000075	          0.05000187	          0.10746693	          0.05000279	          0.05963226	          0.05972153	          0.05962287	          0.23713495	          0.25574740	          0.29859443	          0.41078859	          0.27107108	          0.20565695	          0.14459575	          0.06887297	          0.10042979	          0.07081037	          0.05000129	          0.10177032	          0.26963717	          0.27457050	          0.18959390	          0.13611170	          0.05000027	          0.05997671	          0.12560601	          0.05000335	          0.14208134	          0.12872495	          0.05000259	          0.05000025	          0.43279048	          0.20755393	          0.21607135	          0.05000013	          0.07216807	          0.07577897	          0.06037896	          0.05689212	          0.05972145	          0.05293299	          0.05000007	          0.05000024	          0.05000035	          0.56779066	          0.33507692	          0.18075459	          0.35271456	          0.54960520	          0.25122133	          0.06352134	          0.11999751	          0.07133328	
          0.02333172	         -2.91468004	         -2.30700167	          6.68205622	          0.03648113	          0.91787380	         -0.00243516	        -16.48509593	         -1.86116403	          5.72629087	         26.38847504	          3.96780423	         -1.82437390	        -13.96667483	        -10.11846195	         -2.68531362	          6.89046479	         10.47530546	         -5.52414153	         -4.22581524	         -3.87513468	         27.38793021	         -0.16457405	         -1.10164049	          0.68509049	         -2.41904532	          3.72337028	        -13.50486431	         17.48700366	         -8.95816676	        -13.45346264	          6.48188683	         39.71005669	         15.95319255	         86.51662706	         86.51662706	          0.27873390	          0.05132077	          0.05000008	          0.24419024	          0.10179164	          0.05971988	          0.05000074	          0.05000009	          0.05000011	          0.05000004	          0.05972332	          0.16498645	          0.15204119	          0.05274627	          0.05858620	          0.13323870	          0.16979822	          0.06612588	          0.05000026	          0.05000227	          0.05000187	          0.05000241	          0.24764850	          0.49571838	          0.05000015	          0.05000053	          0.05000012	          0.17153370	          0.12946345	          0.12236020	          0.12155591	          0.14432245	          0.19799908	          0.17104175	          0.15402709	          0.13616070	          0.18136659	          0.12336270	          0.13537144	          0.14367397	          0.05000043	          0.16990776	          0.12155422	          0.07546942	          0.05000002	          0.05000002	          0.34271159	          0.35535171	          0.38254388	          0.34392000	          0.22694633	          0.24999104	          0.12105839	          0.08293971	          0.08734050	          0.05928390	          0.05000037	          0.08520404	          0.22574532	          0.22987572	          0.15873310	          0.16577970	          0.05000026	          0.05021389	          0.10515995	          0.21977470	          0.19766015	          0.16941056	          0.05000004	          0.05000005	          0.36234033	          0.17376809	          0.18089921	          0.05000005	          0.10300403	          0.10736931	          0.08468333	          0.05000002	          0.05000008	          0.05000001	          0.05000023	          0.05000027	          0.05000029	          0.65413638	          0.35865468	          0.19770197	          0.41925371	          0.57335649	          0.36132104	          0.08022473	          0.10046417	          0.05972156	
          0.03499758	         -2.90429621	         -2.36500471	          6.85313093	          0.05456451	          0.91711528	         -0.00221037	        -16.14730493	         -2.13434644	          5.48518551	         25.65102120	          4.19712950	         -1.54483713	        -16.15715629	        -10.76272726	         -3.64266797	          6.31501531	         11.25438933	         -5.83624491	         -5.08646684	         -3.91743867	         27.39851989	         -0.18853315	         -0.89034872	          0.88515799	         -2.46062450	          3.27897374	        -13.52761729	         17.66518687	         -9.89223392	        -13.45794939	          6.44517100	         40.82041223	         15.70574043	         86.51662706	         86.51662706	          0.23336142	          0.05000009	          0.05000005	          0.20444091	          0.08522193	          0.05000021	          0.05353413	          0.05948277	          0.05972119	          0.05000030	          0.05000204	          0.18274148	          0.22940801	          0.05000229	          0.05000513	          0.12544587	          0.14215860	          0.05536316	          0.05000164	          0.05000113	          0.05000070	          0.05000057	          0.20733598	          0.45250143	          0.05000009	          0.05000041	          0.05000018	          0.14361123	          0.10838925	          0.10244227	          0.10176890	          0.12082946	          0.16576855	          0.14319935	          0.12895484	          0.11399650	          0.15184368	          0.15723541	          0.11723389	          0.12723737	          0.10176967	          0.20742353	          0.10176770	          0.09991488	          0.05000001	          0.05000002	          0.42609085	          0.42844072	          0.43800280	          0.29657063	          0.19352287	          0.27597215	          0.10135245	          0.10141644	          0.08500110	          0.05000069	          0.05000016	          0.07133445	          0.18899831	          0.22314680	          0.25114240	          0.19241925	          0.05000014	          0.05000338	          0.10450887	          0.27136968	          0.23283475	          0.20977301	          0.05000005	          0.05000005	          0.30335814	          0.14548194	          0.19478256	          0.05000003	          0.16649657	          0.17384078	          0.13560116	          0.05000001	          0.05000003	          0.05000000	          0.05000000	          0.05000008	          0.05000007	          0.68735233	          0.30027265	          0.16551986	          0.58669363	          0.61452775	          0.39276686	          0.09178937	          0.08411050	          0.05000005	
